PathFileType	4	(X/Y/Z)	31_1_3_p0_0-391_filt_butterworth.trc
DataRate	CameraRate	NumFrames	NumMarkers	Units	OrigDataRate	OrigDataStartFrame	OrigNumFrames
59.0	59.0	4	27	m	59.0	0	391
Frame#	Time	RHip			RKnee			RAnkle			RBigToe			RSmallToe			RHeel			LHip			LKnee			LAnkle			LBigToe			LSmallToe			LHeel			Neck			Head			Nose			RShoulder			RElbow			RWrist			RThumb			RIndex			RPinky			LShoulder			LElbow			LWrist			LThumb			LIndex			LPinky			
		X1	Y1	Z1	X2	Y2	Z2	X3	Y3	Z3	X4	Y4	Z4	X5	Y5	Z5	X6	Y6	Z6	X7	Y7	Z7	X8	Y8	Z8	X9	Y9	Z9	X10	Y10	Z10	X11	Y11	Z11	X12	Y12	Z12	X13	Y13	Z13	X14	Y14	Z14	X15	Y15	Z15	X16	Y16	Z16	X17	Y17	Z17	X18	Y18	Z18	X19	Y19	Z19	X20	Y20	Z20	X21	Y21	Z21	X22	Y22	Z22	X23	Y23	Z23	X24	Y24	Z24	X25	Y25	Z25	X26	Y26	Z26	X27	Y27	Z27	
0	0.0	0.18871074853458955	0.6073268121281751	0.18645208224165277	0.17225337138749938	0.822524014743695	0.5406224068650254	0.11127622201823593	1.06595859563056	0.9176233774793714	0.06432757885636042	0.8010128303659265	1.0009247454447947	0.13935185968369823	0.8738857305097567	1.002280727706676	0.09616101362540888	1.1412352212307275	0.9454196183418526	-0.03735892431754013	0.6377415524740844	0.1666391356292211	-0.06240754738835666	0.8218062181578436	0.5179346669370885	-0.08603716454712364	1.016675557873402	0.8804186735495653	-0.0894035046649354	0.8791074826387335	0.9860161443895713	-0.14202686985755936	0.9197946330539181	0.9669105431141182	-0.07325233910455406	1.0908289674459788	0.9193453279604775	0.11995845579539985	0.2907631627275288	-0.39313522862242467	0.09522778069130318	0.09300837504915986	-0.6058313926967503	0.08751725809094617	0.11014284418860577	-0.4578275163838752	0.2775811080043319	0.32712302348801464	-0.29906378286794	0.3262244612108435	0.43190896864698397	-0.014729087317850942	0.09333985309099616	0.32191841987046693	0.13605495314787633	0.01686732232450407	0.3518226201871579	0.14578175977608668	0.07378215534504717	0.36298529235412924	0.2599317304087756	0.030593493690371815	0.29726286459723195	0.23313272022294537	-0.03884528731526943	0.342075020166511	-0.3170914206128717	-0.09196383965452783	0.4149586729114817	-0.05023388497013902	0.03499195459518581	0.4162618334640372	0.15924599527004576	0.09815196536075599	0.42688173188931744	0.20963365680712615	0.10945493685532318	0.3874568866220631	0.2567342738236019	0.08432537980945765	0.39361338729349005	0.25447740230241767
1	0.0169491525423728	0.1896437686416048	0.6085801417932962	0.1885974516669796	0.17231610783814183	0.8225472949908245	0.5405667600200128	0.11235593574383716	1.0607111180944346	0.9147720241002628	0.06622296790923315	0.8098101607890941	1.002164375319792	0.14100020229486043	0.8632754885399962	1.001263999768777	0.10126197469247962	1.1390345526963386	0.9460800458764849	-0.037502742369728836	0.6357614228465067	0.1643617228780128	-0.05999818969325148	0.812484116891869	0.5184770013206497	-0.08602723600621354	1.0166507467472263	0.8804518482209492	-0.0867902794275036	0.8682058282317249	0.9848993906101354	-0.1425203605513337	0.9201892018873683	0.9680452265921816	-0.07329445123182521	1.090813050634067	0.919409322401644	0.12191475965557409	0.2832482249260047	-0.39028569337419894	0.09517250395398015	0.09299315625501495	-0.6058660452064394	0.0875138679181578	0.11019476553904346	-0.4578312852217068	0.28027292497147227	0.3276114557749904	-0.2991708192849793	0.3231096491158651	0.42541329221738344	-0.012011190046810076	0.09007610831931312	0.323671536599474	0.13439311606385587	0.01707725975951904	0.3493683749540564	0.14653813075080047	0.06064933004200906	0.374350045195284	0.24215893767114283	0.024319262238276875	0.32851759185988744	0.22088877140782145	-0.03670797109298512	0.34884579946480493	-0.31934436973391567	-0.09211951730689158	0.4153426842190083	-0.05309625585681474	0.03187901245485404	0.41686039101646194	0.15695073457328554	0.09817154691007562	0.424769020126234	0.2053676949547665	0.11200431206635664	0.3838998431977485	0.25815642153872753	0.08466219877386799	0.39124573475623947	0.2567480264386164
2	0.0338983050847457	0.19063083484266696	0.6092371754476347	0.18944523074436043	0.1723758141038952	0.8225722413616106	0.5405354480214927	0.11282452855903038	1.05857815116282	0.9131586072690308	0.06731409026677136	0.8149091374556019	1.0029042906388248	0.14197059371752124	0.8569059303368604	1.0006652600568404	0.10367591610953057	1.1402129685362994	0.947451939358289	-0.037552973086136594	0.6348974142426475	0.16338506311184922	-0.05862875449183081	0.8068947585272707	0.5190979473765918	-0.08601674561319905	1.016667124298457	0.8804303648897325	-0.08522350572843462	0.8616717873013232	0.9842066502080382	-0.1426680712332551	0.920424814374408	0.9685406045381887	-0.0733157876721238	1.0908270824132198	0.9194463497239346	0.12307537146001249	0.2787667308934764	-0.3885920421925589	0.0951305739437772	0.09296342817993104	-0.605881377947766	0.08750994613784838	0.11024421527302206	-0.45783185460026216	0.28186748271604245	0.327883988480154	-0.29922872982143217	0.3211738648698374	0.42173124027918124	-0.009969322794719425	0.08809312674315936	0.3241177456451889	0.13329898070864885	0.017356119789619123	0.34762488987943674	0.1469312020164854	0.04911043372951453	0.39165926451491545	0.22558841191357754	0.013809057535544128	0.35547244710130965	0.2053808102400917	-0.03542790455104505	0.3528589702357812	-0.32068672027977196	-0.09294280054642781	0.41753017179334395	-0.05603666369484306	0.028740965749362562	0.4217531711308791	0.15375841645490343	0.0982443575911621	0.42655077565713523	0.1995757759898702	0.11082955142667836	0.393730417982009	0.25522668024628326	0.08606305996810536	0.3978173223763179	0.2553594474535573
3	0.0508474576271186	0.19155264416917062	0.609200231446294	0.18879824920636784	0.17242467626049507	0.8225938874785527	0.5405286543329113	0.11250408071184592	1.060542074149548	0.912904938788393	0.06761038671562351	0.8161700279577299	1.0030964758815322	0.14225749694840764	0.8551541117177728	1.0005058336359771	0.10309197489676225	1.1460227330077533	0.9494106792343764	-0.03752202760520006	0.6351557523586832	0.1637379082539635	-0.058325067599384356	0.8052672238608918	0.5199812552576996	-0.08600929596308361	1.016713331628427	0.8803659538491686	-0.08477106726805626	0.8598204422389049	0.9839747523896968	-0.14218685869051367	0.9204061738770647	0.9684792807113779	-0.07331753927312612	1.0908646109588591	0.9194414066247039	0.12338894414482784	0.27752604294056377	-0.38813004376095467	0.09510955176194238	0.09290977174158674	-0.6058856283055496	0.08750426176570365	0.11027458158729206	-0.4578278390103646	0.2822905726852831	0.3279151205060406	-0.29923407050638795	0.3205505756199227	0.4209065384984632	-0.008938809424844379	0.08667795469801279	0.3246485744643877	0.13202650746226396	0.017701926688334715	0.34646416325758417	0.14709141068925155	0.04039549061395257	0.4070846600883326	0.21367797235878114	0.001288620407909271	0.3708622684220807	0.19012178315412848	-0.03506685643047475	0.35394347242036484	-0.32105538825177793	-0.09424898018986504	0.4212761025016416	-0.05871699635127989	0.026845933876591125	0.42992874646303386	0.15094023096425868	0.09871682389463136	0.43219938953250525	0.19408233211735718	0.1071937650678518	0.4130119339339746	0.24949309424924737	0.08847966618897823	0.41171549092694154	0.25148269807296164
